<?xml version="1.0" encoding="UTF-8"?>
<svg width="62px" height="62px" viewBox="0 0 62 62" version="1.1" xmlns="http://www.w3.org/2000/svg" xmlns:xlink="http://www.w3.org/1999/xlink">
    <!-- Generator: sketchtool 51.2 (57519) - http://www.bohemiancoding.com/sketch -->
    <title>80430DF4-A17B-48C7-8697-1423CD4A3692</title>
    <desc>Created with sketchtool.</desc>
    <defs></defs>
    <g id="Page-1" stroke="none" stroke-width="1" fill="none" fill-rule="evenodd">
        <g id="Artboard-2" transform="translate(-415.000000, -371.000000)" fill="#F4F4F4" fill-rule="nonzero">
            <g id="ic-alarm-on-24px" transform="translate(414.517188, 370.389036)">
                <path d="M62.0143836,12.4312095 L47.9711506,0.647105354 L44.0329396,5.31800675 L58.0761726,17.1021109 L62.0143836,12.4312095 Z M18.9077641,5.31800675 L15.0000819,0.647105354 L0.956848961,12.4006808 L4.89505994,17.0715822 L18.9077641,5.31800675 Z M31.4856163,7.18026156 C16.3128189,7.18026156 4.00972569,19.4833548 4.00972569,34.6561521 C4.00972569,49.8289495 16.2822901,62.1320427 31.4856163,62.1320427 C46.6584136,62.1320427 58.9615068,49.8289495 58.9615068,34.6561521 C58.9615068,19.4833548 46.6584136,7.18026156 31.4856163,7.18026156 Z M31.4856163,56.0262892 C19.6709833,56.0262892 10.1154792,46.4707851 10.1154792,34.6561521 C10.1154792,22.8415192 19.6709833,13.286015 31.4856163,13.286015 C43.3002492,13.286015 52.8557534,22.8415192 52.8557534,34.6561521 C52.8557534,46.4707851 43.3002492,56.0262892 31.4856163,56.0262892 Z M27.0284162,39.3270535 L20.5257888,32.8244261 L17.2897395,36.0604754 L26.9978875,45.7686234 L45.3151479,27.451363 L42.0790985,24.2153137 L27.0284162,39.3270535 Z" id="Shape"></path>
            </g>
        </g>
    </g>
</svg>