<?xml version="1.0" encoding="UTF-8"?>
<svg width="62px" height="62px" viewBox="0 0 62 62" version="1.1" xmlns="http://www.w3.org/2000/svg" xmlns:xlink="http://www.w3.org/1999/xlink">
    <!-- Generator: sketchtool 51.2 (57519) - http://www.bohemiancoding.com/sketch -->
    <title>A1F49654-1801-4313-8EAC-36436B32C0A9</title>
    <desc>Created with sketchtool.</desc>
    <defs></defs>
    <g id="Page-1" stroke="none" stroke-width="1" fill="none" fill-rule="evenodd">
        <g id="Artboard-2" transform="translate(-416.000000, -591.000000)" fill="#F4F4F4" fill-rule="nonzero">
            <g id="ic-copyright-48px" transform="translate(415.814858, 590.819982)">
                <path d="M31,0.191224574 C13.9781516,0.191224574 0.191224574,13.9781516 0.191224574,31 C0.191224574,48.0218484 13.9781516,61.8087754 31,61.8087754 C48.0218484,61.8087754 61.8087754,48.0218484 61.8087754,31 C61.8087754,13.9781516 48.0218484,0.191224574 31,0.191224574 Z M31,55.6470203 C17.41333,55.6470203 6.35297966,44.58667 6.35297966,31 C6.35297966,17.41333 17.41333,6.35297966 31,6.35297966 C44.58667,6.35297966 55.6470203,17.41333 55.6470203,31 C55.6470203,44.58667 44.58667,55.6470203 31,55.6470203 Z M25.0847151,27.503204 C25.2541634,26.5019188 25.5622511,25.6084643 26.0089784,24.8228405 C26.4557056,24.0372168 27.0718811,23.4056369 27.8266961,22.9281008 C28.5507024,22.4813736 29.4595612,22.2349034 30.5840815,22.219499 C31.3234921,22.2349034 32.0012852,22.3581385 32.5866519,22.6200131 C33.2182318,22.8972921 33.741981,23.2669974 34.1887083,23.729129 C34.6354355,24.1912606 34.974332,24.7458186 35.2208022,25.3619941 C35.4672724,25.9781696 35.6059119,26.6405583 35.6367207,27.3337557 L41.1514915,27.3337557 C41.1052783,25.8857433 40.812595,24.5609659 40.3042502,23.3594237 C39.7959054,22.1578815 39.0564948,21.1257875 38.1322315,20.2477374 C37.2079682,19.3696873 36.0988523,18.7072986 34.8048838,18.2297626 C33.5109152,17.7522266 32.0783071,17.5057564 30.5070596,17.5057564 C28.5044892,17.5057564 26.7637934,17.8446529 25.2849722,18.5378503 C23.8061509,19.2310478 22.5737999,20.1707154 21.5879191,21.3722577 C20.6020383,22.5737999 19.8626277,23.9601948 19.3850917,25.5468467 C18.9075556,27.1334987 18.6764898,28.8125769 18.6764898,30.5840815 L18.6764898,31.4313229 C18.6764898,33.2182318 18.92296,34.8973101 19.4004961,36.483962 C19.8780321,38.070614 20.6174427,39.4570089 21.6033235,40.6431467 C22.5892043,41.8292846 23.8215553,42.7689522 25.3157809,43.4621497 C26.8100065,44.1553471 28.5507024,44.4942436 30.5532728,44.4942436 C32.0012852,44.4942436 33.3568713,44.2631778 34.6200311,43.7856418 C35.8831909,43.3081058 36.9923068,42.6611215 37.9473789,41.8292846 C38.9024509,40.9974476 39.6726703,40.0423756 40.2272282,38.9332597 C40.7817862,37.8241438 41.1052783,36.6534103 41.1514915,35.3902505 L35.6367207,35.3902505 C35.6059119,36.0372348 35.451868,36.6226015 35.1745891,37.1771595 C34.8973101,37.7317174 34.5276048,38.1938491 34.0654732,38.5789588 C33.6033415,38.9640684 33.064188,39.2721562 32.4480124,39.4878176 C31.8626457,39.6880747 31.2464702,39.7959054 30.5840815,39.7959054 C29.4749656,39.7650966 28.5661067,39.5340308 27.8266961,39.0718992 C27.0564767,38.5789588 26.4403012,37.9473789 25.993574,37.1617551 C25.5468467,36.3761313 25.238759,35.4826768 25.0693107,34.4659872 C24.8998625,33.4492976 24.8382449,32.4634168 24.8382449,31.4313229 L24.8382449,30.5840815 C24.8382449,29.5365832 24.9152669,28.5044892 25.0847151,27.503204 Z" id="Shape"></path>
            </g>
        </g>
    </g>
</svg>