<?xml version="1.0" encoding="UTF-8"?>
<svg width="59px" height="65px" viewBox="0 0 59 65" version="1.1" xmlns="http://www.w3.org/2000/svg" xmlns:xlink="http://www.w3.org/1999/xlink">
    <!-- Generator: sketchtool 51.2 (57519) - http://www.bohemiancoding.com/sketch -->
    <title>340527AF-8C7F-4551-8E27-1782AC774CD2</title>
    <desc>Created with sketchtool.</desc>
    <defs></defs>
    <g id="Page-1" stroke="none" stroke-width="1" fill="none" fill-rule="evenodd">
        <g id="Artboard-2" transform="translate(-573.000000, -750.000000)" fill="#F4F4F4" fill-rule="nonzero">
            <g id="ic-fingerprint-48px" transform="translate(573.916222, 749.415096)">
                <path d="M47.6871997,8.77928148 C47.4298747,8.77928148 47.1886324,8.71495022 46.9473902,8.60237052 C40.7876723,5.41797327 35.4320951,4.05093404 29.031135,4.05093404 C22.6462576,4.05093404 16.631285,5.57880141 11.1148797,8.58628771 C10.3268218,9.00444088 9.36185292,8.73103304 8.92761693,7.94297513 C8.50946376,7.15491723 8.7828716,6.18994836 9.57092951,5.75571237 C15.5698193,2.49090104 22.1155248,0.834371159 29.031135,0.834371159 C35.8824139,0.834371159 41.8652209,2.34615571 48.4270091,5.73962956 C49.2150671,6.14169992 49.5206405,7.1227516 49.1185702,7.9108095 C48.8290795,8.45762519 48.266181,8.77928148 47.6871997,8.77928148 Z M1.65818481,25.6662366 C1.33652853,25.6662366 1.01487224,25.5697397 0.725381578,25.376746 C0.00165492874,24.8620959 -0.17525603,23.8649614 0.339394032,23.1412348 C3.52379129,18.6380467 7.59274334,15.0998275 12.4175877,12.6069913 C22.5336779,7.38007663 35.4642607,7.36399381 45.5964338,12.5748257 C50.4051953,15.0515791 54.4580646,18.5576327 57.6585446,23.0286551 C58.1731947,23.7523817 58.0123665,24.7495162 57.2886399,25.2641663 C56.5649132,25.7788163 55.5516959,25.6179882 55.0370459,24.8942615 C52.1421393,20.8413923 48.4752576,17.656995 44.1328977,15.4375667 C34.9013622,10.6931364 23.1126593,10.7092192 13.8972066,15.4697323 C9.53876388,17.7213263 5.85579938,20.9218064 2.9769756,25.0068412 C2.65531931,25.4410772 2.15675206,25.6662366 1.65818481,25.6662366 Z M21.7777857,64.4740678 C21.3596325,64.4740678 20.9575621,64.3132397 20.6359058,63.9915834 C17.8535789,61.1770909 16.3417944,59.3918985 14.1706144,55.5159402 C11.951186,51.5595678 10.7771406,46.7186407 10.7771406,41.5399745 C10.7771406,31.9867827 18.9472103,24.2027005 28.9989693,24.2027005 C39.0507283,24.2027005 47.2207981,31.9706999 47.2207981,41.5399745 C47.2207981,42.4245293 46.4970714,43.1482559 45.6125166,43.1482559 C44.7279618,43.1482559 44.0042352,42.4245293 44.0042352,41.5399745 C44.0042352,33.7558923 37.2816188,27.4192634 28.9989693,27.4192634 C20.7324027,27.4192634 13.9937035,33.7558923 13.9937035,41.5399745 C13.9937035,46.171825 15.0230036,50.4498536 16.9690241,53.9398244 C19.0437072,57.6388717 20.4268292,59.2310703 22.9035827,61.7239066 C23.5308124,62.3511363 23.5308124,63.3804364 22.8874998,63.9915834 C22.5980092,64.3293225 22.179856,64.4740678 21.7777857,64.4740678 Z M44.8244587,58.5234265 C40.9967489,58.5234265 37.6354407,57.5584576 34.8531138,55.6767683 C30.0765179,52.4280398 27.2137769,47.1528767 27.2137769,41.5560573 C27.2137769,40.6715025 27.9375036,39.9477758 28.8220584,39.9477758 C29.7066132,39.9477758 30.4303398,40.6715025 30.4303398,41.5560573 C30.4303398,46.0753281 32.7623479,50.3533568 36.6704718,53.0070211 C38.9381486,54.5509713 41.6078958,55.3068636 44.8244587,55.3068636 C45.5964338,55.3068636 46.8991418,55.2264495 48.1857669,55.0012901 C49.0542389,54.840462 49.8905453,55.4355261 50.0513734,56.3039981 C50.2122015,57.1724701 49.6171374,58.0087764 48.7486654,58.1696046 C46.8669762,58.5073437 45.2747775,58.5234265 44.8244587,58.5234265 Z M38.3430845,65.1656288 C38.1983392,65.1656288 38.0535938,65.149546 37.9249313,65.1012976 C32.7945135,63.7020927 29.4492881,61.8043206 25.9754002,58.3465155 C21.488295,53.8754931 19.0115416,47.908769 19.0115416,41.5560573 C19.0115416,36.3291426 23.4503984,32.0832796 28.9185553,32.0832796 C34.3867122,32.0832796 38.8255689,36.3291426 38.8255689,41.5560573 C38.8255689,44.9977796 41.8330552,47.8122721 45.5160197,47.8122721 C49.1989842,47.8122721 52.2064705,45.0138624 52.2064705,41.5560573 C52.2064705,29.4296152 41.7526412,19.57085 28.9024724,19.57085 C19.751351,19.57085 11.4043704,24.6530193 7.64099178,32.5335984 C6.38653225,35.1390143 5.75930249,38.1786662 5.75930249,41.5560573 C5.75930249,44.0649763 5.98446189,48.0213487 7.89831681,53.1517665 C8.20389028,53.9880728 7.78573711,54.9047932 6.94943076,55.2264495 C6.11312441,55.532023 5.19640399,55.1138698 4.8747477,54.2775635 C3.29863188,50.0477833 2.52665679,45.8984172 2.52665679,41.5560573 C2.52665679,37.6961818 3.26646626,34.1901283 4.73000237,31.1504763 C9.02411382,22.1762659 18.5129743,16.3703699 28.8863896,16.3703699 C43.5056679,16.3703699 55.4069506,27.6765884 55.4069506,41.5721401 C55.4069506,46.7990548 50.952011,51.0449178 45.4999369,51.0449178 C40.0478628,51.0449178 35.5929232,46.7990548 35.5929232,41.5721401 C35.5929232,38.1304178 32.5854369,35.3159253 28.9024724,35.3159253 C25.2195079,35.3159253 22.2120216,38.114335 22.2120216,41.5721401 C22.2120216,47.0563798 24.351036,52.2189632 28.2269942,56.0788387 C31.2666462,59.1024078 34.225884,60.7750205 38.7612377,62.0133972 C39.6136268,62.2546394 40.1282769,63.1391942 39.8870347,63.9915834 C39.6940409,64.6992272 39.0507283,65.1656288 38.3430845,65.1656288 Z" id="Shape"></path>
            </g>
        </g>
    </g>
</svg>