<?xml version="1.0" encoding="UTF-8"?>
<svg width="55px" height="46px" viewBox="0 0 55 46" version="1.1" xmlns="http://www.w3.org/2000/svg" xmlns:xlink="http://www.w3.org/1999/xlink">
    <!-- Generator: sketchtool 51.2 (57519) - http://www.bohemiancoding.com/sketch -->
    <title>9983C6C5-7917-438C-B402-5FA84CD6B61A</title>
    <desc>Created with sketchtool.</desc>
    <defs></defs>
    <g id="Page-1" stroke="none" stroke-width="1" fill="none" fill-rule="evenodd">
        <g id="Artboard-2" transform="translate(-811.000000, -759.000000)" fill="#F4F4F4" fill-rule="nonzero">
            <g id="ic-important-devices-48px" transform="translate(811.657728, 759.415096)">
                <path d="M33.7320806,16.2679194 L26.9326792,16.2679194 L24.7559731,9.53583884 L22.5792671,16.2679194 L15.7798657,16.2679194 L21.322612,20.2174067 L19.2132268,26.7475249 L24.7559731,22.7082765 L30.2987195,26.7475249 L28.1893342,20.2174067 L33.7320806,16.2679194 Z M33.7320806,16.2679194 L26.9326792,16.2679194 L24.7559731,9.53583884 L22.5792671,16.2679194 L15.7798657,16.2679194 L21.322612,20.2174067 L19.2132268,26.7475249 L24.7559731,22.7082765 L30.2987195,26.7475249 L28.1893342,20.2174067 L33.7320806,16.2679194 Z M51.6842955,20.7671933 L40.4641612,20.7559731 C39.2299464,20.7559731 38.2201343,21.7657852 38.2201343,23 L38.2201343,43.1962417 C38.2201343,44.4304565 39.2299464,45.4402686 40.4641612,45.4402686 L51.6842955,45.4402686 C52.9185102,45.4402686 53.9283223,44.4304565 53.9283223,43.1962417 L53.9283223,23 C53.9283223,21.7657852 52.9185102,20.7671933 51.6842955,20.7671933 Z M51.6842955,40.9522149 L40.4641612,40.9522149 L40.4641612,25.2440269 L51.6842955,25.2440269 L51.6842955,40.9522149 Z M44.9522149,0.559731401 L4.5597314,0.559731401 C2.06886159,0.559731401 0.0716776807,2.55691531 0.0716776807,5.04778512 L0.0716776807,31.9761074 C0.0716776807,34.444537 2.06886159,36.4641612 4.5597314,36.4641612 L20.2679194,36.4641612 L20.2679194,40.9522149 L15.7798657,40.9522149 L15.7798657,45.4402686 L33.7320806,45.4402686 L33.7320806,40.9522149 L29.2440269,40.9522149 L29.2440269,36.4641612 L33.7320806,36.4641612 L33.7320806,31.9761074 L4.5597314,31.9761074 L4.5597314,5.04778512 L44.9522149,5.04778512 L44.9522149,16.2679194 L49.4402686,16.2679194 L49.4402686,5.04778512 C49.4402686,2.55691531 47.4206444,0.559731401 44.9522149,0.559731401 Z M26.9326792,16.2679194 L24.7559731,9.53583884 L22.5792671,16.2679194 L15.7798657,16.2679194 L21.322612,20.2174067 L19.2132268,26.7475249 L24.7559731,22.7082765 L30.2987195,26.7475249 L28.1893342,20.2174067 L33.7320806,16.2679194 L26.9326792,16.2679194 Z" id="Shape"></path>
            </g>
        </g>
    </g>
</svg>