<?xml version="1.0" encoding="UTF-8"?>
<svg width="63px" height="63px" viewBox="0 0 63 63" version="1.1" xmlns="http://www.w3.org/2000/svg" xmlns:xlink="http://www.w3.org/1999/xlink">
    <!-- Generator: sketchtool 51.2 (57519) - http://www.bohemiancoding.com/sketch -->
    <title>27CCB0BC-662D-4197-9AC2-C77C0B6C3AAC</title>
    <desc>Created with sketchtool.</desc>
    <defs></defs>
    <g id="Page-1" stroke="none" stroke-width="1" fill="none" fill-rule="evenodd">
        <g id="Artboard-2" transform="translate(-806.000000, -211.000000)" fill-rule="nonzero">
            <g id="ic-local-phone-48px" transform="translate(806.657728, 211.128447)">
                <circle id="Oval-4-Copy" stroke="#F4F4F4" stroke-width="6" cx="31" cy="31" r="27.888057"></circle>
                <path d="M22.2912833,29.0476272 C24.6244093,33.6328678 28.3752333,37.3836919 32.968575,39.7168178 L36.533073,36.1442187 C36.9786353,35.6986564 37.6186247,35.5690383 38.1776028,35.7472632 C39.9922563,36.346747 41.9446291,36.6707923 43.9618109,36.6707923 C44.8610365,36.6707923 45.5820372,37.391793 45.5820372,38.2910186 L45.5820372,43.9618109 C45.5820372,44.8610365 44.8610365,45.5820372 43.9618109,45.5820372 C28.7478854,45.5820372 16.4179628,33.2521146 16.4179628,18.0381891 C16.4179628,17.1389635 17.1470646,16.4179628 18.0381891,16.4179628 L23.7089814,16.4179628 C24.608207,16.4179628 25.3292077,17.1389635 25.3292077,18.0381891 C25.3292077,20.0553709 25.653253,22.0077437 26.2527368,23.8223972 C26.4309617,24.3813753 26.3013436,25.0213647 25.8557813,25.466927 L22.2912833,29.0476272 Z" id="Shape" fill="#F4F4F4"></path>
            </g>
        </g>
    </g>
</svg>