<?xml version="1.0" encoding="UTF-8"?>
<svg width="63px" height="63px" viewBox="0 0 63 63" version="1.1" xmlns="http://www.w3.org/2000/svg" xmlns:xlink="http://www.w3.org/1999/xlink">
    <!-- Generator: sketchtool 51.2 (57519) - http://www.bohemiancoding.com/sketch -->
    <title>2722D146-17E1-43AB-B1F9-C0844C6135E6</title>
    <desc>Created with sketchtool.</desc>
    <defs></defs>
    <g id="Page-1" stroke="none" stroke-width="1" fill="none" fill-rule="evenodd">
        <g id="Artboard-2" transform="translate(-963.000000, -591.000000)" fill="#F4F4F4" fill-rule="nonzero">
            <g id="ic-power-settings-new-48px" transform="translate(963.821467, 591.309112)">
                <path d="M34.4268146,0.158668401 L27.5731854,0.158668401 L27.5731854,34.4268146 L34.4268146,34.4268146 L34.4268146,0.158668401 Z M50.9954633,7.57772206 L46.1465206,12.4266647 C51.5266196,16.8301215 54.9877024,23.495276 54.9877024,31 C54.9877024,44.2446385 44.2446385,54.9877024 31,54.9877024 C17.7553615,54.9877024 7.01229765,44.2446385 7.01229765,31 C7.01229765,23.495276 10.4733804,16.8301215 15.8534794,12.4266647 L11.0045367,7.57772206 C4.39078446,13.2319662 0.158668401,21.6105279 0.158668401,31 C0.158668401,48.0312687 13.9687313,61.8413316 31,61.8413316 C48.0312687,61.8413316 61.8413316,48.0312687 61.8413316,31 C61.8413316,21.6105279 57.6092155,13.2319662 50.9954633,7.57772206 Z" id="Shape"></path>
            </g>
        </g>
    </g>
</svg>