<?xml version="1.0" encoding="UTF-8"?>
<svg width="63px" height="63px" viewBox="0 0 63 63" version="1.1" xmlns="http://www.w3.org/2000/svg" xmlns:xlink="http://www.w3.org/1999/xlink">
    <!-- Generator: sketchtool 51.2 (57519) - http://www.bohemiancoding.com/sketch -->
    <title>F11B8E51-608D-4AA1-BF91-76439B519E53</title>
    <desc>Created with sketchtool.</desc>
    <defs></defs>
    <g id="Page-1" stroke="none" stroke-width="1" fill="none" fill-rule="evenodd">
        <g id="Artboard-2" transform="translate(-962.000000, -371.000000)" fill-rule="nonzero">
            <g id="ic-supervisor-account-48px" transform="translate(962.821467, 371.000000)">
                <circle id="Oval-4" stroke="#F4F4F4" stroke-width="6" cx="31" cy="31.5510329" r="27.888057"></circle>
                <path d="M40,28 C42.76,28 44.98,25.76 44.98,23 C44.98,20.24 42.76,18 40,18 C37.24,18 35,20.24 35,23 C35,25.76 37.24,28 40,28 Z M25,26 C28.31,26 30.98,23.31 30.98,20 C30.98,16.69 28.31,14 25,14 C21.69,14 19,16.69 19,20 C19,23.31 21.69,26 25,26 Z M40,32 C36.33,32 29,33.84 29,37.5 L29,42 L51,42 L51,37.5 C51,33.84 43.67,32 40,32 Z M25,30 C20.33,30 11,32.34 11,37 L11,42 L25,42 L25,37.5 C25,35.8 25.67,32.83 29.74,30.56 C28,30.19 26.31,30 25,30 Z" id="Shape" fill="#F4F4F4"></path>
            </g>
        </g>
    </g>
</svg>