<?xml version="1.0" encoding="UTF-8"?>
<svg width="71px" height="52px" viewBox="0 0 71 52" version="1.1" xmlns="http://www.w3.org/2000/svg" xmlns:xlink="http://www.w3.org/1999/xlink">
    <!-- Generator: sketchtool 51.2 (57519) - http://www.bohemiancoding.com/sketch -->
    <title>11A3B885-3817-49F7-8FC9-B2A3A24BFBAA</title>
    <desc>Created with sketchtool.</desc>
    <defs></defs>
    <g id="Page-1" stroke="none" stroke-width="1" fill="none" fill-rule="evenodd">
        <g id="Artboard-2" transform="translate(-567.000000, -216.000000)" fill="#F4F4F4" fill-rule="nonzero">
            <g id="Ico-1" transform="translate(566.906658, 216.128447)">
                <path d="M57.6755188,12.853892 L44.8748052,25.6546056 L54.4753404,25.6546056 C54.4753404,36.2471961 45.8668605,44.855676 35.27427,44.855676 C32.0420898,44.855676 28.9699185,44.0556314 26.3137705,42.6155511 L21.64151,47.2878116 C25.5777294,49.7839507 30.2499899,51.2560328 35.27427,51.2560328 C49.4190585,51.2560328 60.8756972,39.7993941 60.8756972,25.6546056 L70.4762324,25.6546056 L57.6755188,12.853892 Z M16.0731996,25.6546056 C16.0731996,15.0620151 24.6816795,6.45353522 35.27427,6.45353522 C38.5064502,6.45353522 41.5786214,7.25357982 44.2347695,8.6936601 L48.90703,4.02139964 C44.9708105,1.52526049 40.2985501,0.0531784255 35.27427,0.0531784255 C21.1294815,0.0531784255 9.67284281,11.5098171 9.67284281,25.6546056 L0.072307614,25.6546056 L12.8730212,38.4553192 L25.6737348,25.6546056 L16.0731996,25.6546056 Z" id="Shape"></path>
            </g>
        </g>
    </g>
</svg>