<?xml version="1.0" encoding="UTF-8"?>
<svg width="215px" height="206px" viewBox="0 0 215 206" version="1.1" xmlns="http://www.w3.org/2000/svg" xmlns:xlink="http://www.w3.org/1999/xlink">
    <!-- Generator: sketchtool 51.2 (57519) - http://www.bohemiancoding.com/sketch -->
    <title>86478CEA-024B-450B-AA91-5FF137C9DDD2</title>
    <desc>Created with sketchtool.</desc>
    <defs></defs>
    <g id="Page-1" stroke="none" stroke-width="1" fill="none" fill-rule="evenodd">
        <g id="Artboard-2" transform="translate(-612.000000, -409.000000)" fill="#BEBEBE" fill-rule="nonzero">
            <g id="Logo" transform="translate(605.000000, 397.000000)">
                <path d="M68.8999483,115.162952 L68.8999483,78.6496346 C68.8999483,60.4242379 83.6745516,45.6496346 101.899948,45.6496346 L178.741201,45.6496346 C194.676194,45.6496346 207.594058,58.5674985 207.594058,74.5024912 L207.594058,79.3553477 C207.594058,92.6101817 196.848892,103.355348 183.594058,103.355348 L149.805213,103.355348 C137.009519,103.355348 126.63656,113.728307 126.63656,126.524001 C126.63656,139.319695 116.2636,149.692655 103.467906,149.692655 L51.6424537,149.692655 C48.4111276,149.692655 45.7916201,152.312162 45.7916201,155.543489 C45.7916201,158.774815 48.4111276,161.394322 51.6424537,161.394322 L114.934893,161.394322 C127.701333,161.394322 138.050578,151.045078 138.050578,138.278637 C138.050578,125.512197 148.399822,115.162952 161.166263,115.162952 L161.249394,115.162952 L161.249394,151.350365 C161.249394,169.575762 146.474791,184.350365 128.249394,184.350365 L51.2481312,184.350365 C35.31903,184.350365 22.405942,171.437277 22.405942,155.508176 L22.405942,150.665987 C22.405942,137.411153 33.151108,126.665987 46.405942,126.665987 L80.2779179,126.665987 C93.0431393,126.665987 103.391396,116.31773 103.391396,103.552509 C103.391396,90.7872876 113.739652,80.4390311 126.504874,80.4390311 L178.676094,80.4390311 C181.879792,80.4390311 184.476902,77.841921 184.476902,74.6382234 C184.476902,71.4345259 181.879792,68.8374158 178.676094,68.8374158 L115.108696,68.8374158 C102.361251,68.8374158 92.0274041,79.1712623 92.0274041,91.9187079 C92.0274041,104.692375 81.7200351,115.072624 68.9466849,115.162623 L68.8999483,115.162952 Z M189.639395,184.350365 C180.009391,184.350365 172.202731,176.543705 172.202731,166.913702 C172.202731,157.283699 180.009391,149.477039 189.639395,149.477039 C199.269398,149.477039 207.076058,157.283699 207.076058,166.913702 C207.076058,176.543705 199.269398,184.350365 189.639395,184.350365 Z M39.8426053,80.5229612 C30.2126021,80.5229612 22.405942,72.7163011 22.405942,63.0862979 C22.405942,53.4562947 30.2126021,45.6496346 39.8426053,45.6496346 C49.4726085,45.6496346 57.2792686,53.4562947 57.2792686,63.0862979 C57.2792686,72.7163011 49.4726085,80.5229612 39.8426053,80.5229612 Z" id="Combined-Shape" transform="translate(115.000000, 115.000000) rotate(-45.000000) translate(-115.000000, -115.000000) "></path>
            </g>
        </g>
    </g>
</svg>